<svg width="242" height="116" viewBox="0 0 242 116" fill="none" xmlns="http://www.w3.org/2000/svg">
<g clip-path="url(#clip0_1142_3)">
<rect width="242" height="116" fill="white"/>
<path d="M84.5148 55.9499C82.8988 55.9499 81.7548 55.7259 81.0828 55.2779C80.4108 54.8139 80.0748 54.0619 80.0748 53.0219C80.0748 52.0299 80.0748 51.1979 80.0748 50.5259C80.0908 49.8379 80.0988 49.1979 80.0988 48.6059C80.0988 47.6939 80.0668 46.7739 80.0028 45.8459C79.9388 44.9179 79.8108 44.0299 79.6188 43.1819C79.4268 42.3339 79.1388 41.5659 78.7548 40.8779C78.3708 40.1899 77.8588 39.6299 77.2188 39.1979C78.3068 38.3659 79.5548 37.9499 80.9628 37.9499C81.9388 37.9499 82.7148 38.2299 83.2908 38.7899C83.8668 39.3499 84.2988 40.1019 84.5868 41.0459C84.8748 41.9739 85.0588 43.0059 85.1388 44.1419C85.2348 45.2619 85.2828 46.3899 85.2828 47.5259C85.2828 48.2619 85.2668 48.9739 85.2348 49.6619C85.2188 50.3499 85.2108 50.9819 85.2108 51.5579H85.8348C86.2828 50.5979 86.7068 49.4859 87.1068 48.2219C87.5228 46.9579 87.8668 45.7179 88.1388 44.5019C88.0588 43.7179 87.9308 42.9579 87.7548 42.2219C87.5948 41.4859 87.3708 40.7019 87.0828 39.8699C87.6428 39.4379 88.1788 39.1179 88.6908 38.9099C89.2028 38.6859 89.8108 38.5739 90.5148 38.5739C91.5868 38.5739 92.3308 38.7899 92.7468 39.2219C93.1788 39.6539 93.3948 40.2459 93.3948 40.9979C93.3948 41.6219 93.2828 42.3419 93.0588 43.1579C92.8348 43.9579 92.5628 44.8299 92.2428 45.7739C92.2428 46.1419 92.2348 46.5979 92.2188 47.1419C92.2188 47.6699 92.2108 48.2219 92.1948 48.7979C92.1948 49.3579 92.1868 49.8859 92.1708 50.3819C92.1708 50.8779 92.1708 51.2699 92.1708 51.5579H92.7948C93.1628 50.7579 93.5548 49.8539 93.9708 48.8459C94.3868 47.8379 94.7788 46.8139 95.1468 45.7739C95.5148 44.7339 95.8108 43.7499 96.0348 42.8219C96.2748 41.8939 96.3948 41.1179 96.3948 40.4939C96.3948 40.2219 96.3708 39.9819 96.3228 39.7739C96.2748 39.5499 96.2108 39.3579 96.1308 39.1979C96.7388 38.7819 97.3068 38.4699 97.8348 38.2619C98.3788 38.0539 98.9308 37.9499 99.4908 37.9499C100.371 37.9499 100.987 38.2059 101.339 38.7179C101.707 39.2139 101.891 39.8619 101.891 40.6619C101.891 41.2539 101.779 41.9499 101.555 42.7499C101.331 43.5499 101.035 44.3979 100.667 45.2939C100.315 46.1899 99.9388 47.0859 99.5388 47.9819C99.1388 48.8619 98.7468 49.6939 98.3628 50.4779C97.9948 51.2619 97.6908 51.9419 97.4508 52.5179L97.7868 53.8379C97.1628 54.4779 96.4268 54.9899 95.5788 55.3739C94.7468 55.7579 93.7148 55.9499 92.4828 55.9499C91.4428 55.9499 90.6188 55.8539 90.0108 55.6619C89.4188 55.4859 88.9868 55.2059 88.7148 54.8219C88.1388 55.1419 87.5068 55.4059 86.8188 55.6139C86.1308 55.8379 85.3628 55.9499 84.5148 55.9499ZM103.633 55.9739C102.849 55.9739 102.297 55.7419 101.977 55.2779C101.657 54.7979 101.497 54.1659 101.497 53.3819C101.497 52.7899 101.609 52.1259 101.833 51.3899C102.073 50.6539 102.377 49.8859 102.745 49.0859C103.113 48.2699 103.505 47.4539 103.921 46.6379C104.337 45.8219 104.737 45.0379 105.121 44.2859C105.521 43.5339 105.857 42.8539 106.129 42.2459C106.049 41.8459 105.953 41.4219 105.841 40.9739C105.729 40.5259 105.625 40.1019 105.529 39.7019C106.249 39.2059 107.001 38.7899 107.785 38.4539C108.569 38.1179 109.513 37.9499 110.617 37.9499C111.033 37.9499 111.385 38.0059 111.673 38.1179C111.961 38.2299 112.185 38.3739 112.345 38.5499C112.761 38.3739 113.169 38.2299 113.569 38.1179C113.969 38.0059 114.393 37.9499 114.841 37.9499C115.449 37.9499 115.897 38.1259 116.185 38.4779C116.473 38.8139 116.657 39.2539 116.737 39.7979C116.833 40.3259 116.881 40.8859 116.881 41.4779C116.881 42.3899 116.849 43.3099 116.785 44.2379C116.721 45.1659 116.689 46.1499 116.689 47.1899C116.689 48.2939 116.745 49.3659 116.857 50.4059C116.969 51.4459 117.193 52.3659 117.529 53.1659C117.865 53.9659 118.361 54.5579 119.017 54.9419C118.473 55.2779 117.945 55.5339 117.433 55.7099C116.937 55.8859 116.345 55.9739 115.657 55.9739C114.873 55.9739 114.233 55.7579 113.737 55.3259C113.241 54.8939 112.849 54.3099 112.561 53.5739C112.289 52.8379 112.089 52.0219 111.961 51.1259H107.065C106.921 51.6219 106.809 52.0779 106.729 52.4939C106.649 52.8939 106.609 53.2539 106.609 53.5739C106.609 54.0859 106.673 54.5099 106.801 54.8459C106.209 55.2139 105.657 55.4939 105.145 55.6859C104.633 55.8779 104.129 55.9739 103.633 55.9739ZM108.073 48.6059H111.793C111.793 47.7099 111.801 46.9019 111.817 46.1819C111.849 45.4619 111.881 44.7739 111.913 44.1179C111.961 43.4459 112.009 42.7499 112.057 42.0299H111.289C110.745 43.1019 110.185 44.2139 109.609 45.3659C109.033 46.5179 108.521 47.5979 108.073 48.6059ZM127.045 55.9499C125.605 55.9499 124.421 55.8459 123.493 55.6379C122.565 55.4459 121.845 55.1739 121.333 54.8219C120.821 54.4699 120.461 54.0699 120.253 53.6219C120.061 53.1579 119.965 52.6699 119.965 52.1579C119.965 51.6779 120.037 51.1979 120.181 50.7179C120.341 50.2379 120.613 49.7419 120.997 49.2299C121.221 49.6939 121.589 50.1419 122.101 50.5739C122.613 51.0059 123.189 51.3579 123.829 51.6299C124.485 51.9019 125.125 52.0379 125.749 52.0379C126.581 52.0379 127.269 51.9099 127.813 51.6539C128.373 51.3819 128.773 50.9659 129.013 50.4059C126.293 50.0379 124.253 49.2859 122.893 48.1499C121.533 46.9979 120.853 45.6459 120.853 44.0939C120.853 43.1819 121.037 42.3819 121.405 41.6939C121.789 41.0059 122.293 40.4299 122.917 39.9659C123.541 39.4859 124.221 39.1019 124.957 38.8139C125.693 38.5099 126.421 38.2939 127.141 38.1659C127.861 38.0219 128.501 37.9499 129.061 37.9499C131.093 37.9499 132.653 38.1899 133.741 38.6699C134.845 39.1339 135.397 39.9579 135.397 41.1419C135.397 41.8299 135.237 42.4059 134.917 42.8699C134.613 43.3339 134.205 43.6859 133.693 43.9259C133.197 44.1499 132.653 44.2619 132.061 44.2619C131.357 44.2619 130.669 44.0619 129.997 43.6619C129.325 43.2459 128.853 42.6699 128.581 41.9339C128.021 41.9339 127.469 42.1259 126.925 42.5099C126.381 42.8779 126.029 43.3899 125.869 44.0459C127.997 44.5579 129.709 45.1259 131.005 45.7499C132.317 46.3739 133.269 47.0779 133.861 47.8619C134.453 48.6459 134.749 49.5419 134.749 50.5499C134.749 51.7179 134.405 52.7019 133.717 53.5019C133.029 54.3019 132.101 54.9099 130.933 55.3259C129.781 55.7419 128.485 55.9499 127.045 55.9499ZM142.248 55.9739C141.176 55.9739 140.416 55.6699 139.968 55.0619C139.536 54.4379 139.32 53.5019 139.32 52.2539C139.32 51.4859 139.44 50.3419 139.68 48.8219C139.92 47.3019 140.264 45.3099 140.712 42.8459C140.344 42.8939 139.872 42.9659 139.296 43.0619C138.736 43.1579 138.168 43.2619 137.592 43.3739C137.016 43.4699 136.536 43.5659 136.152 43.6619C136.056 43.3579 136 43.0619 135.984 42.7739C135.968 42.4859 135.96 42.2619 135.96 42.1019C135.96 41.1899 136.12 40.4459 136.44 39.8699C136.776 39.2939 137.216 38.8699 137.76 38.5979C138.304 38.3259 138.896 38.1899 139.536 38.1899C140.352 38.1899 141.16 38.2699 141.96 38.4299C142.76 38.5739 143.56 38.7259 144.36 38.8859C145.176 39.0459 146.008 39.1419 146.856 39.1739C147.448 39.0619 148.104 38.9179 148.824 38.7419C149.56 38.5659 150.2 38.3979 150.744 38.2379C150.84 38.5419 150.896 38.8379 150.912 39.1259C150.928 39.4139 150.936 39.6379 150.936 39.7979C150.936 40.7099 150.752 41.4539 150.384 42.0299C150.032 42.6059 149.552 43.0299 148.944 43.3019C148.352 43.5739 147.696 43.7099 146.976 43.7099C146.768 43.7099 146.568 43.7099 146.376 43.7099C146.184 43.6939 146 43.6779 145.824 43.6619C145.68 44.3819 145.528 45.1339 145.368 45.9179C145.224 46.7019 145.088 47.4619 144.96 48.1979C144.832 48.9179 144.72 49.5659 144.624 50.1419C144.544 50.7019 144.504 51.1259 144.504 51.4139C144.504 52.2299 144.56 52.9179 144.672 53.4779C144.8 54.0379 144.984 54.5099 145.224 54.8939C144.264 55.6139 143.272 55.9739 142.248 55.9739ZM154.29 55.9739C153.218 55.9739 152.458 55.6699 152.01 55.0619C151.578 54.4379 151.362 53.5019 151.362 52.2539C151.362 51.4539 151.49 50.2539 151.746 48.6539C152.018 47.0379 152.394 44.9019 152.874 42.2459L151.602 39.6779C152.354 39.1979 153.154 38.7899 154.002 38.4539C154.85 38.1019 155.698 37.9259 156.546 37.9259C157.09 37.9259 157.49 38.0539 157.746 38.3099C158.018 38.5659 158.202 38.8859 158.298 39.2699C158.858 39.2539 159.514 39.1899 160.266 39.0779C161.018 38.9659 161.81 38.8219 162.642 38.6459C163.474 38.4699 164.282 38.2699 165.066 38.0459C165.146 38.3499 165.194 38.6299 165.21 38.8859C165.242 39.1419 165.258 39.3819 165.258 39.6059C165.258 40.5179 165.05 41.2619 164.634 41.8379C164.218 42.4139 163.658 42.8379 162.954 43.1099C162.266 43.3819 161.506 43.5179 160.674 43.5179C159.778 43.5179 158.882 43.3259 157.986 42.9419C157.89 43.4859 157.786 44.0619 157.674 44.6699C157.562 45.2619 157.442 45.8619 157.314 46.4699C157.57 46.5179 157.818 46.5579 158.058 46.5899C158.314 46.6219 158.57 46.6379 158.826 46.6379C159.146 46.5739 159.506 46.4939 159.906 46.3979C160.322 46.2859 160.682 46.1819 160.986 46.0859C161.05 46.2939 161.082 46.5099 161.082 46.7339C161.098 46.9419 161.106 47.1099 161.106 47.2379C161.106 48.0059 160.842 48.5659 160.314 48.9179C159.802 49.2699 159.194 49.4459 158.49 49.4459C158.186 49.4459 157.898 49.4299 157.626 49.3979C157.354 49.3499 157.082 49.2939 156.81 49.2299C156.73 49.7099 156.666 50.1659 156.618 50.5979C156.57 51.0299 156.546 51.5259 156.546 52.0859H160.434C161.65 51.9099 162.874 51.5979 164.106 51.1499C164.17 51.3259 164.21 51.5099 164.226 51.7019C164.242 51.8939 164.25 52.1019 164.25 52.3259C164.25 52.8859 164.138 53.4459 163.914 54.0059C163.69 54.5659 163.346 55.0299 162.882 55.3979C162.418 55.7659 161.834 55.9499 161.13 55.9499C160.762 55.9499 160.386 55.9179 160.002 55.8539C159.618 55.7899 159.218 55.7179 158.802 55.6379C158.498 55.5739 158.17 55.5099 157.818 55.4459C157.482 55.3819 157.106 55.3259 156.69 55.2779C155.922 55.7419 155.122 55.9739 154.29 55.9739ZM28.2313 86.9739C27.1593 86.9739 26.3993 86.6699 25.9513 86.0619C25.5193 85.4379 25.3033 84.5019 25.3033 83.2539C25.3033 82.4539 25.4313 81.2539 25.6873 79.6539C25.9593 78.0379 26.3353 75.9019 26.8153 73.2459L25.5433 70.6779C26.2953 70.1979 27.0953 69.7899 27.9433 69.4539C28.7913 69.1179 29.6393 68.9499 30.4873 68.9499C30.9193 68.9499 31.3913 69.0139 31.9033 69.1419C32.4313 69.2699 32.8473 69.4459 33.1513 69.6699C34.3513 69.1899 35.4313 68.9499 36.3913 68.9499C37.4313 68.9499 38.3033 69.1899 39.0073 69.6699C39.7273 70.1499 40.2713 70.7739 40.6393 71.5419C41.0073 72.3099 41.1913 73.1339 41.1913 74.0139C41.1913 75.0059 40.9353 75.9899 40.4233 76.9659C39.9113 77.9419 39.1273 78.7499 38.0713 79.3899C38.4233 80.3819 38.8073 81.3099 39.2233 82.1739C39.6553 83.0219 40.1033 83.7499 40.5673 84.3579C41.0313 84.9499 41.4873 85.3739 41.9353 85.6299C41.7113 85.8699 41.3993 86.0939 40.9993 86.3019C40.5993 86.4939 40.1753 86.6459 39.7273 86.7579C39.2793 86.8859 38.8713 86.9499 38.5033 86.9499C37.8153 86.9499 37.2073 86.8379 36.6793 86.6139C36.1513 86.4059 35.6793 86.0139 35.2633 85.4379C34.8633 84.8619 34.4793 84.0539 34.1113 83.0139L33.2713 80.5899C32.4393 80.5899 31.5993 80.4619 30.7513 80.2059C30.5753 81.2299 30.4873 81.9659 30.4873 82.4139C30.4873 83.2299 30.5433 83.9179 30.6553 84.4779C30.7833 85.0379 30.9673 85.5099 31.2073 85.8939C30.2473 86.6139 29.2553 86.9739 28.2313 86.9739ZM31.8073 77.5899C32.7193 77.5899 33.4713 77.4299 34.0633 77.1099C34.6713 76.7739 35.1193 76.3579 35.4073 75.8619C35.7113 75.3499 35.8633 74.8459 35.8633 74.3499C35.8633 73.7419 35.6633 73.2059 35.2633 72.7419C34.8633 72.2619 34.2633 72.0219 33.4633 72.0219C33.0473 72.0219 32.6313 72.0779 32.2153 72.1899C32.1513 72.6219 32.0713 73.1419 31.9753 73.7499C31.8793 74.3419 31.7753 74.9739 31.6633 75.6459C31.5513 76.3019 31.4153 76.9419 31.2553 77.5659C31.3353 77.5819 31.4153 77.5899 31.4953 77.5899C31.5913 77.5899 31.6953 77.5899 31.8073 77.5899ZM45.8328 86.9739C44.7608 86.9739 44.0008 86.6699 43.5528 86.0619C43.1208 85.4379 42.9048 84.5019 42.9048 83.2539C42.9048 82.4539 43.0328 81.2539 43.2888 79.6539C43.5608 78.0379 43.9368 75.9019 44.4168 73.2459L43.1448 70.6779C43.8968 70.1979 44.6968 69.7899 45.5448 69.4539C46.3928 69.1019 47.2408 68.9259 48.0888 68.9259C48.6328 68.9259 49.0328 69.0539 49.2888 69.3099C49.5608 69.5659 49.7448 69.8859 49.8408 70.2699C50.4008 70.2539 51.0568 70.1899 51.8088 70.0779C52.5608 69.9659 53.3528 69.8219 54.1848 69.6459C55.0168 69.4699 55.8248 69.2699 56.6088 69.0459C56.6888 69.3499 56.7368 69.6299 56.7528 69.8859C56.7848 70.1419 56.8008 70.3819 56.8008 70.6059C56.8008 71.5179 56.5928 72.2619 56.1768 72.8379C55.7608 73.4139 55.2008 73.8379 54.4968 74.1099C53.8088 74.3819 53.0488 74.5179 52.2168 74.5179C51.3208 74.5179 50.4248 74.3259 49.5288 73.9419C49.4328 74.4859 49.3288 75.0619 49.2168 75.6699C49.1048 76.2619 48.9848 76.8619 48.8568 77.4699C49.1128 77.5179 49.3608 77.5579 49.6008 77.5899C49.8568 77.6219 50.1128 77.6379 50.3688 77.6379C50.6888 77.5739 51.0488 77.4939 51.4488 77.3979C51.8648 77.2859 52.2248 77.1819 52.5288 77.0859C52.5928 77.2939 52.6248 77.5099 52.6248 77.7339C52.6408 77.9419 52.6488 78.1099 52.6488 78.2379C52.6488 79.0059 52.3848 79.5659 51.8568 79.9179C51.3448 80.2699 50.7368 80.4459 50.0328 80.4459C49.7288 80.4459 49.4408 80.4299 49.1688 80.3979C48.8968 80.3499 48.6248 80.2939 48.3528 80.2299C48.2728 80.7099 48.2088 81.1659 48.1608 81.5979C48.1128 82.0299 48.0888 82.5259 48.0888 83.0859H51.9768C53.1928 82.9099 54.4168 82.5979 55.6488 82.1499C55.7128 82.3259 55.7528 82.5099 55.7688 82.7019C55.7848 82.8939 55.7928 83.1019 55.7928 83.3259C55.7928 83.8859 55.6808 84.4459 55.4568 85.0059C55.2328 85.5659 54.8888 86.0299 54.4248 86.3979C53.9608 86.7659 53.3768 86.9499 52.6728 86.9499C52.3048 86.9499 51.9288 86.9179 51.5448 86.8539C51.1608 86.7899 50.7608 86.7179 50.3448 86.6379C50.0408 86.5739 49.7128 86.5099 49.3608 86.4459C49.0248 86.3819 48.6488 86.3259 48.2328 86.2779C47.4648 86.7419 46.6648 86.9739 45.8328 86.9739ZM64.2442 86.9499C62.8042 86.9499 61.6202 86.8459 60.6922 86.6379C59.7642 86.4459 59.0442 86.1739 58.5322 85.8219C58.0202 85.4699 57.6602 85.0699 57.4522 84.6219C57.2602 84.1579 57.1642 83.6699 57.1642 83.1579C57.1642 82.6779 57.2362 82.1979 57.3802 81.7179C57.5402 81.2379 57.8122 80.7419 58.1962 80.2299C58.4202 80.6939 58.7882 81.1419 59.3002 81.5739C59.8122 82.0059 60.3882 82.3579 61.0282 82.6299C61.6842 82.9019 62.3242 83.0379 62.9482 83.0379C63.7802 83.0379 64.4682 82.9099 65.0122 82.6539C65.5722 82.3819 65.9722 81.9659 66.2122 81.4059C63.4922 81.0379 61.4522 80.2859 60.0922 79.1499C58.7322 77.9979 58.0522 76.6459 58.0522 75.0939C58.0522 74.1819 58.2362 73.3819 58.6042 72.6939C58.9882 72.0059 59.4922 71.4299 60.1162 70.9659C60.7402 70.4859 61.4202 70.1019 62.1562 69.8139C62.8922 69.5099 63.6202 69.2939 64.3402 69.1659C65.0602 69.0219 65.7002 68.9499 66.2602 68.9499C68.2922 68.9499 69.8522 69.1899 70.9402 69.6699C72.0442 70.1339 72.5962 70.9579 72.5962 72.1419C72.5962 72.8299 72.4362 73.4059 72.1162 73.8699C71.8122 74.3339 71.4042 74.6859 70.8922 74.9259C70.3962 75.1499 69.8522 75.2619 69.2602 75.2619C68.5562 75.2619 67.8682 75.0619 67.1962 74.6619C66.5242 74.2459 66.0522 73.6699 65.7802 72.9339C65.2202 72.9339 64.6682 73.1259 64.1242 73.5099C63.5802 73.8779 63.2282 74.3899 63.0682 75.0459C65.1962 75.5579 66.9082 76.1259 68.2042 76.7499C69.5162 77.3739 70.4682 78.0779 71.0602 78.8619C71.6522 79.6459 71.9482 80.5419 71.9482 81.5499C71.9482 82.7179 71.6042 83.7019 70.9162 84.5019C70.2282 85.3019 69.3002 85.9099 68.1322 86.3259C66.9802 86.7419 65.6842 86.9499 64.2442 86.9499ZM80.8397 86.9499C79.4637 86.9499 78.2237 86.6699 77.1197 86.1099C76.0317 85.5339 75.1677 84.6539 74.5277 83.4699C73.8877 82.2859 73.5677 80.7899 73.5677 78.9819C73.5677 78.1019 73.7197 77.1979 74.0237 76.2699C74.3277 75.3419 74.7677 74.4459 75.3437 73.5819C75.9357 72.7019 76.6637 71.9179 77.5277 71.2299C78.4077 70.5259 79.4237 69.9739 80.5757 69.5739C81.7277 69.1579 83.0077 68.9499 84.4157 68.9499C85.2797 68.9499 86.0557 69.0699 86.7437 69.3099C87.4477 69.5499 87.9997 69.9099 88.3997 70.3899C88.7997 70.8539 88.9997 71.4379 88.9997 72.1419C88.9997 72.8299 88.8397 73.4059 88.5197 73.8699C88.2157 74.3339 87.8077 74.6859 87.2957 74.9259C86.7997 75.1499 86.2557 75.2619 85.6637 75.2619C84.9597 75.2619 84.2717 75.0859 83.5997 74.7339C82.9277 74.3819 82.3837 73.8619 81.9677 73.1739C81.4077 73.4459 80.8797 73.9099 80.3837 74.5659C79.9037 75.2059 79.5197 75.9579 79.2317 76.8219C78.9437 77.6859 78.7997 78.5819 78.7997 79.5099C78.7997 80.1659 78.8797 80.7819 79.0397 81.3579C79.2157 81.9179 79.4797 82.3739 79.8317 82.7259C80.1837 83.0779 80.6317 83.2539 81.1757 83.2539C81.6237 83.2539 82.0557 83.0859 82.4717 82.7499C82.8877 82.3979 83.2317 81.9339 83.5037 81.3579C83.7757 80.7819 83.9117 80.1339 83.9117 79.4139C84.8877 79.4139 85.7037 79.4619 86.3597 79.5579C87.0317 79.6379 87.5437 79.8219 87.8957 80.1099C88.2477 80.3979 88.4237 80.8459 88.4237 81.4539C88.4237 82.0619 88.2477 82.6859 87.8957 83.3259C87.5437 83.9659 87.0317 84.5659 86.3597 85.1259C85.7037 85.6699 84.9037 86.1099 83.9597 86.4459C83.0317 86.7819 81.9917 86.9499 80.8397 86.9499ZM104.134 86.9739C103.366 86.9739 102.694 86.7499 102.118 86.3019C101.542 85.8379 101.254 85.1019 101.254 84.0939C101.254 83.9979 101.254 83.9019 101.254 83.8059C101.254 83.6939 101.262 83.5819 101.278 83.4699L101.038 83.3979C99.4545 85.7659 97.3265 86.9499 94.6545 86.9499C93.3105 86.9499 92.3265 86.5899 91.7025 85.8699C91.0945 85.1499 90.7905 84.1499 90.7905 82.8699C90.7905 82.2619 90.8625 81.4379 91.0065 80.3979C91.1665 79.3419 91.3505 78.1899 91.5585 76.9419C91.7825 75.6939 91.9985 74.4619 92.2065 73.2459L90.9345 70.6779C91.8145 70.1659 92.6385 69.7499 93.4065 69.4299C94.1905 69.1099 95.0145 68.9499 95.8785 68.9499C96.6305 68.9499 97.1265 69.1659 97.3665 69.5979C97.6065 70.0299 97.7265 70.5579 97.7265 71.1819C97.7265 71.3899 97.6865 71.7499 97.6065 72.2619C97.5265 72.7579 97.4225 73.3499 97.2945 74.0379C97.1825 74.7259 97.0545 75.4459 96.9105 76.1979C96.7825 76.9339 96.6545 77.6539 96.5265 78.3579C96.4145 79.0459 96.3185 79.6539 96.2385 80.1819C96.1585 80.7099 96.1185 81.0939 96.1185 81.3339C96.1185 81.9259 96.2145 82.3899 96.4065 82.7259C96.6145 83.0619 96.9505 83.2299 97.4145 83.2299C97.7985 83.2299 98.2385 83.0619 98.7345 82.7259C99.2465 82.3899 99.7585 81.8859 100.27 81.2139C100.782 80.5259 101.222 79.6699 101.59 78.6459C101.254 77.6539 101.086 76.6459 101.086 75.6219C101.086 74.4539 101.278 73.3659 101.662 72.3579C102.062 71.3499 102.654 70.5339 103.438 69.9099C104.222 69.2699 105.198 68.9499 106.366 68.9499C106.734 68.9499 107.11 68.9819 107.494 69.0459C107.894 69.1099 108.262 69.2299 108.598 69.4059C108.454 70.2699 108.286 71.2219 108.094 72.2619C107.902 73.3019 107.702 74.3579 107.494 75.4299C107.302 76.4859 107.118 77.4939 106.942 78.4539C106.782 79.4139 106.646 80.2459 106.534 80.9499C106.438 81.6379 106.39 82.1259 106.39 82.4139C106.39 83.2299 106.446 83.9179 106.558 84.4779C106.686 85.0379 106.87 85.5099 107.11 85.8939C106.15 86.6139 105.158 86.9739 104.134 86.9739ZM113.45 86.9739C112.378 86.9739 111.618 86.6699 111.17 86.0619C110.738 85.4379 110.522 84.5019 110.522 83.2539C110.522 82.4539 110.65 81.2539 110.906 79.6539C111.178 78.0379 111.554 75.9019 112.034 73.2459L110.762 70.6779C111.514 70.1979 112.314 69.7899 113.162 69.4539C114.01 69.1019 114.858 68.9259 115.706 68.9259C116.25 68.9259 116.65 69.0539 116.906 69.3099C117.178 69.5659 117.362 69.8859 117.458 70.2699C118.018 70.2539 118.674 70.1899 119.426 70.0779C120.178 69.9659 120.97 69.8219 121.802 69.6459C122.634 69.4699 123.442 69.2699 124.226 69.0459C124.306 69.3499 124.354 69.6299 124.37 69.8859C124.402 70.1419 124.418 70.3819 124.418 70.6059C124.418 71.5179 124.21 72.2619 123.794 72.8379C123.378 73.4139 122.818 73.8379 122.114 74.1099C121.426 74.3819 120.666 74.5179 119.834 74.5179C118.938 74.5179 118.042 74.3259 117.146 73.9419C117.05 74.4859 116.946 75.0619 116.834 75.6699C116.722 76.2619 116.602 76.8619 116.474 77.4699C116.73 77.5179 116.978 77.5579 117.218 77.5899C117.474 77.6219 117.73 77.6379 117.986 77.6379C118.306 77.5739 118.666 77.4939 119.066 77.3979C119.482 77.2859 119.842 77.1819 120.146 77.0859C120.21 77.2939 120.242 77.5099 120.242 77.7339C120.258 77.9419 120.266 78.1099 120.266 78.2379C120.266 79.0059 120.002 79.5659 119.474 79.9179C118.962 80.2699 118.354 80.4459 117.65 80.4459C117.346 80.4459 117.058 80.4299 116.786 80.3979C116.514 80.3499 116.242 80.2939 115.97 80.2299C115.89 80.7099 115.826 81.1659 115.778 81.5979C115.73 82.0299 115.706 82.5259 115.706 83.0859H119.594C120.81 82.9099 122.034 82.5979 123.266 82.1499C123.33 82.3259 123.37 82.5099 123.386 82.7019C123.402 82.8939 123.41 83.1019 123.41 83.3259C123.41 83.8859 123.298 84.4459 123.074 85.0059C122.85 85.5659 122.506 86.0299 122.042 86.3979C121.578 86.7659 120.994 86.9499 120.29 86.9499C119.922 86.9499 119.546 86.9179 119.162 86.8539C118.778 86.7899 118.378 86.7179 117.962 86.6379C117.658 86.5739 117.33 86.5099 116.978 86.4459C116.642 86.3819 116.266 86.3259 115.85 86.2779C115.082 86.7419 114.282 86.9739 113.45 86.9739ZM128.309 86.9739C127.237 86.9739 126.477 86.6699 126.029 86.0619C125.597 85.4379 125.381 84.5019 125.381 83.2539C125.381 82.4539 125.509 81.2539 125.765 79.6539C126.037 78.0379 126.413 75.9019 126.893 73.2459L125.621 70.6779C126.373 70.1979 127.173 69.7899 128.021 69.4539C128.869 69.1179 129.717 68.9499 130.565 68.9499C130.997 68.9499 131.469 69.0139 131.981 69.1419C132.509 69.2699 132.925 69.4459 133.229 69.6699C134.429 69.1899 135.509 68.9499 136.469 68.9499C137.509 68.9499 138.381 69.1899 139.085 69.6699C139.805 70.1499 140.349 70.7739 140.717 71.5419C141.085 72.3099 141.269 73.1339 141.269 74.0139C141.269 75.0059 141.013 75.9899 140.501 76.9659C139.989 77.9419 139.205 78.7499 138.149 79.3899C138.501 80.3819 138.885 81.3099 139.301 82.1739C139.733 83.0219 140.181 83.7499 140.645 84.3579C141.109 84.9499 141.565 85.3739 142.013 85.6299C141.789 85.8699 141.477 86.0939 141.077 86.3019C140.677 86.4939 140.253 86.6459 139.805 86.7579C139.357 86.8859 138.949 86.9499 138.581 86.9499C137.893 86.9499 137.285 86.8379 136.757 86.6139C136.229 86.4059 135.757 86.0139 135.341 85.4379C134.941 84.8619 134.557 84.0539 134.189 83.0139L133.349 80.5899C132.517 80.5899 131.677 80.4619 130.829 80.2059C130.653 81.2299 130.565 81.9659 130.565 82.4139C130.565 83.2299 130.621 83.9179 130.733 84.4779C130.861 85.0379 131.045 85.5099 131.285 85.8939C130.325 86.6139 129.333 86.9739 128.309 86.9739ZM131.885 77.5899C132.797 77.5899 133.549 77.4299 134.141 77.1099C134.749 76.7739 135.197 76.3579 135.485 75.8619C135.789 75.3499 135.941 74.8459 135.941 74.3499C135.941 73.7419 135.741 73.2059 135.341 72.7419C134.941 72.2619 134.341 72.0219 133.541 72.0219C133.125 72.0219 132.709 72.0779 132.293 72.1899C132.229 72.6219 132.149 73.1419 132.053 73.7499C131.957 74.3419 131.853 74.9739 131.741 75.6459C131.629 76.3019 131.493 76.9419 131.333 77.5659C131.413 77.5819 131.493 77.5899 131.573 77.5899C131.669 77.5899 131.773 77.5899 131.885 77.5899ZM149.463 86.9499C148.023 86.9499 146.839 86.8459 145.911 86.6379C144.983 86.4459 144.263 86.1739 143.751 85.8219C143.239 85.4699 142.879 85.0699 142.671 84.6219C142.479 84.1579 142.383 83.6699 142.383 83.1579C142.383 82.6779 142.455 82.1979 142.599 81.7179C142.759 81.2379 143.031 80.7419 143.415 80.2299C143.639 80.6939 144.007 81.1419 144.519 81.5739C145.031 82.0059 145.607 82.3579 146.247 82.6299C146.903 82.9019 147.543 83.0379 148.167 83.0379C148.999 83.0379 149.687 82.9099 150.231 82.6539C150.791 82.3819 151.191 81.9659 151.431 81.4059C148.711 81.0379 146.671 80.2859 145.311 79.1499C143.951 77.9979 143.271 76.6459 143.271 75.0939C143.271 74.1819 143.455 73.3819 143.823 72.6939C144.207 72.0059 144.711 71.4299 145.335 70.9659C145.959 70.4859 146.639 70.1019 147.375 69.8139C148.111 69.5099 148.839 69.2939 149.559 69.1659C150.279 69.0219 150.919 68.9499 151.479 68.9499C153.511 68.9499 155.071 69.1899 156.159 69.6699C157.263 70.1339 157.815 70.9579 157.815 72.1419C157.815 72.8299 157.655 73.4059 157.335 73.8699C157.031 74.3339 156.623 74.6859 156.111 74.9259C155.615 75.1499 155.071 75.2619 154.479 75.2619C153.775 75.2619 153.087 75.0619 152.415 74.6619C151.743 74.2459 151.271 73.6699 150.999 72.9339C150.439 72.9339 149.887 73.1259 149.343 73.5099C148.799 73.8779 148.447 74.3899 148.287 75.0459C150.415 75.5579 152.127 76.1259 153.423 76.7499C154.735 77.3739 155.687 78.0779 156.279 78.8619C156.871 79.6459 157.167 80.5419 157.167 81.5499C157.167 82.7179 156.823 83.7019 156.135 84.5019C155.447 85.3019 154.519 85.9099 153.351 86.3259C152.199 86.7419 150.903 86.9499 149.463 86.9499ZM169.63 86.9739C168.558 86.9739 167.798 86.6699 167.35 86.0619C166.918 85.4379 166.702 84.5019 166.702 83.2539C166.702 82.4539 166.83 81.2539 167.086 79.6539C167.358 78.0379 167.734 75.9019 168.214 73.2459L166.942 70.6779C167.694 70.1979 168.494 69.7899 169.342 69.4539C170.19 69.1019 171.038 68.9259 171.886 68.9259C172.638 68.9259 173.134 69.1499 173.374 69.5979C173.614 70.0459 173.734 70.5739 173.734 71.1819C173.734 71.4379 173.686 71.8539 173.59 72.4299C173.51 72.9899 173.398 73.6539 173.254 74.4219C173.11 75.1739 172.958 75.9659 172.798 76.7979C172.654 77.6299 172.51 78.4539 172.366 79.2699C172.222 80.0699 172.102 80.8059 172.006 81.4779C171.926 82.1339 171.886 82.6699 171.886 83.0859H174.478C175.694 82.9099 176.918 82.5979 178.15 82.1499C178.214 82.3259 178.254 82.5099 178.27 82.7019C178.286 82.8939 178.294 83.1019 178.294 83.3259C178.294 83.8859 178.182 84.4459 177.958 85.0059C177.734 85.5659 177.39 86.0299 176.926 86.3979C176.462 86.7659 175.878 86.9499 175.174 86.9499C174.486 86.9499 173.886 86.8859 173.374 86.7579C172.862 86.6459 172.326 86.5339 171.766 86.4219C171.414 86.6139 171.062 86.7499 170.71 86.8299C170.358 86.9259 169.998 86.9739 169.63 86.9739ZM183.838 86.9739C182.766 86.9739 182.006 86.6699 181.558 86.0619C181.126 85.4379 180.91 84.5019 180.91 83.2539C180.91 82.4859 181.03 81.3419 181.27 79.8219C181.51 78.3019 181.854 76.3099 182.302 73.8459C181.934 73.8939 181.462 73.9659 180.886 74.0619C180.326 74.1579 179.758 74.2619 179.182 74.3739C178.606 74.4699 178.126 74.5659 177.742 74.6619C177.646 74.3579 177.59 74.0619 177.574 73.7739C177.558 73.4859 177.55 73.2619 177.55 73.1019C177.55 72.1899 177.71 71.4459 178.03 70.8699C178.366 70.2939 178.806 69.8699 179.35 69.5979C179.894 69.3259 180.486 69.1899 181.126 69.1899C181.942 69.1899 182.75 69.2699 183.55 69.4299C184.35 69.5739 185.15 69.7259 185.95 69.8859C186.766 70.0459 187.598 70.1419 188.446 70.1739C189.038 70.0619 189.694 69.9179 190.414 69.7419C191.15 69.5659 191.79 69.3979 192.334 69.2379C192.43 69.5419 192.486 69.8379 192.502 70.1259C192.518 70.4139 192.526 70.6379 192.526 70.7979C192.526 71.7099 192.342 72.4539 191.974 73.0299C191.622 73.6059 191.142 74.0299 190.534 74.3019C189.942 74.5739 189.286 74.7099 188.566 74.7099C188.358 74.7099 188.158 74.7099 187.966 74.7099C187.774 74.6939 187.59 74.6779 187.414 74.6619C187.27 75.3819 187.118 76.1339 186.958 76.9179C186.814 77.7019 186.678 78.4619 186.55 79.1979C186.422 79.9179 186.31 80.5659 186.214 81.1419C186.134 81.7019 186.094 82.1259 186.094 82.4139C186.094 83.2299 186.15 83.9179 186.262 84.4779C186.39 85.0379 186.574 85.5099 186.814 85.8939C185.854 86.6139 184.862 86.9739 183.838 86.9739ZM198.304 86.9499C197.28 86.9499 196.36 86.7819 195.544 86.4459C194.744 86.1099 194.112 85.6139 193.648 84.9579C193.184 84.2859 192.952 83.4459 192.952 82.4379C192.952 81.8299 193.024 81.0379 193.168 80.0619C193.328 79.0859 193.52 78.0139 193.744 76.8459C193.968 75.6619 194.184 74.4619 194.392 73.2459L193.12 70.6779C194.016 70.1659 194.872 69.7499 195.688 69.4299C196.52 69.1099 197.392 68.9499 198.304 68.9499C198.688 68.9499 199.008 69.0139 199.264 69.1419C199.52 69.2699 199.728 69.4459 199.888 69.6699C200.576 69.4299 201.224 69.2539 201.832 69.1419C202.44 69.0299 203.016 68.9739 203.56 68.9739C205.016 68.9739 206.232 69.3019 207.208 69.9579C208.184 70.6139 208.912 71.4779 209.392 72.5499C209.888 73.6219 210.136 74.7899 210.136 76.0539C210.136 77.0619 209.976 78.0779 209.656 79.1019C209.352 80.1259 208.88 81.1099 208.24 82.0539C207.616 82.9979 206.832 83.8379 205.888 84.5739C204.944 85.3099 203.84 85.8939 202.576 86.3259C201.312 86.7419 199.888 86.9499 198.304 86.9499ZM199.168 83.4459C200.384 83.4459 201.4 83.1419 202.216 82.5339C203.048 81.9259 203.672 81.1259 204.088 80.1339C204.504 79.1419 204.712 78.0699 204.712 76.9179C204.712 75.4779 204.384 74.3099 203.728 73.4139C203.072 72.5019 202.096 72.0459 200.8 72.0459C200.656 72.0459 200.504 72.0539 200.344 72.0699C200.184 72.0859 200.016 72.1099 199.84 72.1419C199.744 72.7819 199.616 73.5819 199.456 74.5419C199.312 75.5019 199.144 76.5259 198.952 77.6139C198.776 78.6859 198.6 79.7339 198.424 80.7579C198.264 81.7659 198.136 82.6299 198.04 83.3499C198.232 83.3819 198.424 83.4059 198.616 83.4219C198.808 83.4379 198.992 83.4459 199.168 83.4459ZM213.913 86.9499C213.177 86.9499 212.561 86.7099 212.065 86.2299C211.585 85.7339 211.345 85.1339 211.345 84.4299C211.345 83.8859 211.481 83.3899 211.753 82.9419C212.025 82.4779 212.385 82.1019 212.833 81.8139C213.297 81.5259 213.809 81.3819 214.369 81.3819C215.105 81.3819 215.713 81.6299 216.193 82.1259C216.689 82.6059 216.937 83.1979 216.937 83.9019C216.937 84.4299 216.801 84.9259 216.529 85.3899C216.257 85.8539 215.889 86.2299 215.425 86.5179C214.977 86.8059 214.473 86.9499 213.913 86.9499Z" fill="#030303"/>
<path d="M30.0153 37.2348L30.1701 35.6087L31.7188 36.1249C34.373 37.0471 37.2072 37.3301 39.9913 36.9509C42.9168 36.4969 45.9112 36.9003 48.6123 38.1124C50.0442 38.7221 51.3008 39.6803 52.2678 40.8998C53.2348 42.1192 53.8814 43.5612 54.1488 45.0944C54.4955 47.075 54.322 49.1117 53.6455 51.0051C53.2098 50.0218 52.7008 49.0728 52.1226 48.1659C50.8111 46.2363 48.9939 44.7048 46.87 43.7393C44.8239 42.8051 42.5874 42.3631 40.3398 42.4487C42.4793 42.7766 44.5273 43.5457 46.3538 44.7072C47.2345 45.2609 48.0411 45.9244 48.7542 46.6818C49.436 47.4391 50.0371 48.2652 50.5481 49.1467C51.5075 50.9897 52.1902 52.964 52.5743 55.0059C52.9883 57.0544 53.213 59.1367 53.2454 61.2264H50.6643C50.5416 59.3524 50.2872 57.4894 49.9028 55.6512C48.1123 56.6181 46.1043 57.1112 44.0695 57.0837C42.1718 57.0824 40.2935 56.7006 38.5459 55.9609C28.7247 51.7666 30.0153 37.8156 30.0153 37.2348Z" fill="#25F222"/>
<path d="M214.566 34.4601L214.411 32.834L212.862 33.3502C210.208 34.2724 207.374 34.5554 204.59 34.1762C201.664 33.7222 198.67 34.1256 195.969 35.3377C194.537 35.9474 193.28 36.9056 192.313 38.1251C191.346 39.3445 190.7 40.7865 190.432 42.3197C190.086 44.3003 190.259 46.337 190.936 48.2304C191.371 47.2471 191.88 46.298 192.459 45.3912C193.77 43.4616 195.587 41.9301 197.711 40.9646C199.757 40.0304 201.994 39.5884 204.241 39.674C202.102 40.0019 200.054 40.771 198.227 41.9325C197.347 42.4862 196.54 43.1497 195.827 43.907C195.145 44.6644 194.544 45.4905 194.033 46.372C193.074 48.215 192.391 50.1893 192.007 52.2312C191.593 54.2797 191.368 56.362 191.336 58.4517H193.917C194.039 56.5777 194.294 54.7147 194.678 52.8765C196.469 53.8434 198.477 54.3365 200.512 54.309C202.409 54.3077 204.288 53.9259 206.035 53.1862C215.856 48.9919 214.566 35.0409 214.566 34.4601Z" fill="#25F222"/>
<path fill-rule="evenodd" clip-rule="evenodd" d="M113.732 14.7113C111.213 12.1908 108.065 11.1358 105.605 10.7041C104.582 10.523 103.546 10.4246 102.508 10.4098C102.115 10.4046 101.722 10.4143 101.331 10.4389L101.259 10.4447H101.24L101.232 10.4466H101.228L100.492 10.5163L100.366 11.2442L100.365 11.2538L100.361 11.2771L100.345 11.3642L100.301 11.6797C100.092 13.3054 100.037 14.9473 100.138 16.5832C100.328 19.5083 101.121 23.2309 103.708 25.8172C106.236 28.3454 109.318 29.3308 111.722 29.6908C112.763 29.847 113.816 29.9086 114.868 29.8747V28.268L107.409 20.8053L108.78 19.4347L114.87 25.5288V16.107C114.537 15.6037 114.157 15.1372 113.732 14.7113ZM116.806 18.7669V25.8521L120.073 23.2387L121.281 24.7486L116.806 28.3299V29.8554C117.514 29.8638 118.221 29.8237 118.923 29.7354C120.683 29.5089 122.969 28.8797 124.669 27.1801C126.384 25.463 127.044 22.8709 127.306 20.8711C127.46 19.6658 127.51 18.4495 127.457 17.2356L127.453 17.1737V17.1543L127.451 17.1504L127.393 16.3703L126.622 16.2599H126.615L126.597 16.2561L126.539 16.2483L126.324 16.2232C125.242 16.1137 124.153 16.0955 123.068 16.169C121.177 16.3083 118.683 16.8097 117.077 18.4842L116.999 18.5617L116.806 18.7669Z" fill="#25F222"/>
</g>
<defs>
<clipPath id="clip0_1142_3">
<rect width="242" height="116" fill="white"/>
</clipPath>
</defs>
</svg>
